<?xml version="1.0" encoding="UTF-8"?>
<svg id="Layer_2" data-name="Layer 2" xmlns="http://www.w3.org/2000/svg" viewBox="0 0 1143.36 228.89">
  <defs>
    <style>
      .cls-1 {
        fill: #fff;
      }
    </style>
  </defs>
  <g id="Layer_1-2" data-name="Layer 1">
    <g>
      <g>
        <path class="cls-1" d="M0,109.95C-.36,50.39,48.27,.29,109.68,.2c60.02-.08,109.96,48.3,109.94,109.79-.02,60.27-48.53,109.67-109.86,109.62C46.96,219.56-.36,168.4,0,109.95Zm176,2.58h-25.01c-.08,.72-.19,1.26-.19,1.8-.02,4.79,.07,9.58-.06,14.37-.05,1.72-.3,3.54-.94,5.12-5.4,13.26-15.21,21.4-29.16,24.47-4.61,1.01-9.31,1.12-14.06,.69-8.72-.78-16.8-3.4-23.82-8.55-15.99-11.72-22.99-27.65-20.71-47.28,1.55-13.38,7.97-24.29,18.85-32.39,7.12-5.3,15.12-8.6,24-9.41,9.47-.87,18.41,1.21,26.9,5.38,7.79,3.82,14.37,9.2,20.18,15.57,.79,.87,1.62,1.7,2.61,2.73,5.83-5.88,11.47-11.57,17.32-17.46-3.53-3.43-6.75-6.76-10.18-9.85-18.26-16.47-39.54-23.52-64.04-20.07-15.41,2.17-28.6,8.94-39.25,20.26-12.77,13.57-19.33,29.84-20.2,48.41-.62,13.34,1.73,26.09,7.95,37.97,7.97,15.22,19.49,26.81,35.59,33.36,13.1,5.33,26.74,6.51,40.69,4.53,13.32-1.89,24.85-7.39,34.37-16.96,.22-.22,.5-.38,.88-.66,6,5.95,11.72,12.11,17.85,18.1,.66-2.24,1.01-66.98,.43-70.11Z"/>
        <path class="cls-1" d="M735.35,5.82c.94-.04,1.72-.1,2.5-.11,6.24,0,12.47,.06,18.71-.05,1.74-.03,2.71,.52,3.64,1.97,11.93,18.62,23.93,37.2,35.92,55.79,.51,.79,1.05,1.57,1.52,2.27,.27,0,.35,0,.43,0,.08-.01,.15-.04,.22-.08,.07-.04,.13-.09,.18-.14,.1-.12,.2-.25,.3-.38,.09-.13,.18-.26,.26-.4,12.55-19.46,25.09-38.93,37.64-58.39,.09-.13,.21-.24,.33-.35,.05-.05,.12-.1,.2-.16h23.18c.51,1.86,.61,124.72,.11,127.49h-21.72c-.06-1.23-.17-2.39-.17-3.55,0-28.03,0-56.06-.01-84.08,0-1.08-.08-2.15-.13-3.23-.18-.04-.35-.09-.53-.13-13.32,19.86-26.65,39.71-39.98,59.58-1.24-.37-1.55-1.35-2.05-2.1-9.29-13.86-18.56-27.74-27.84-41.61-3.02-4.51-6.03-9.03-9.06-13.53-.43-.63-.91-1.23-1.6-1.79-.49,3.34-.32,6.64-.35,9.93-.03,3.35,0,6.71,0,10.06v70.48h-21.68V5.82Z"/>
        <path class="cls-1" d="M621.95,5.85h21.7v127.42c-.73,.06-1.41,.16-2.1,.16-4.8,.01-9.6-.07-14.39,.05-1.58,.04-2.46-.57-3.36-1.74-12.51-16.18-25.06-32.32-37.6-48.48-9.89-12.75-19.79-25.49-29.68-38.24-.53-.68-1.09-1.33-1.92-2.33-.2,.91-.36,1.39-.4,1.88-.05,.71-.02,1.44-.02,2.15,0,27.79,0,55.58,0,83.36,0,1.02,0,2.04,0,3.2h-21.48c-.48-1.86-.54-125.02-.03-127.47,.74-.03,1.51-.1,2.29-.1,5.2,0,10.4,.07,15.59-.04,1.77-.04,2.89,.47,4,1.91,13.75,17.84,27.58,35.62,41.38,53.42,7.93,10.22,15.86,20.45,23.8,30.67,.51,.66,1.06,1.28,1.85,1.82,.46-7.32,.33-14.54,.35-21.75,.02-7.35,0-14.69,0-22.04s0-14.53,0-21.8c0-7.26,0-14.52,0-22.05Z"/>
        <path class="cls-1" d="M380.79,29.26c-5.45,5.32-10.75,10.5-15.99,15.62-1.26-1.19-2.76-2.49-4.14-3.91-6.55-6.74-14.1-11.93-22.93-15.29-25.93-9.87-54.24,5.76-60.76,32.41-5.92,24.17,8.09,50.2,33.27,57.05,10.31,2.81,20.61,2.74,30.47-1.72,9.33-4.22,16.04-11.16,19.85-20.77,.69-1.73,1.03-3.49,1-5.36-.05-4.07,0-8.14,.02-12.22,0-.86,.07-1.72,.12-2.73h23.25c.62,3.01,.29,63.66-.43,65.96-5.57-5.68-11.02-11.23-16.55-16.87-.48,.33-.9,.54-1.21,.85-9.28,9.25-20.51,14.45-33.46,16.11-13.25,1.69-26.18,.52-38.54-4.68-15.66-6.6-26.68-18.13-34.04-33.22-6.08-12.46-7.81-25.71-6.29-39.41,1.75-15.82,7.95-29.69,18.96-41.22,10.03-10.51,22.34-16.88,36.77-18.98,22.05-3.2,41.65,2.38,58.67,16.73,3.96,3.34,7.54,7.13,11.29,10.71,.22,.21,.37,.5,.7,.94Z"/>
        <path class="cls-1" d="M1119.87,5.84h23.29c1.48,25.52-8.22,45.57-29.05,60.69,1.06,.81,1.91,1.47,2.77,2.12,12.77,9.69,21.16,22.28,24.73,37.9,.97,4.25,1.32,8.67,1.62,13.03,.26,3.89,.07,7.82,.05,11.73,0,.62-.1,1.24-.16,1.98h-23.06c-.06-.87-.16-1.71-.18-2.56-.09-4.55,0-9.11-.26-13.64-1.11-19.17-16.63-36.3-35.6-39.1-27.48-4.06-45.9,17.2-48.14,35.67-.67,5.52-.43,11.15-.59,16.73-.03,.93,0,1.87,0,2.92h-23.17c-.11-.66-.3-1.27-.3-1.87,.03-4.87-.06-9.75,.19-14.61,.83-15.89,7.05-29.5,18.06-40.91,2.65-2.74,5.75-5.05,8.66-7.55,.66-.57,1.38-1.06,2.38-1.82-.86-.68-1.56-1.28-2.29-1.81-9.21-6.74-16.35-15.18-21.18-25.55-3.98-8.54-5.8-17.53-5.84-26.92,0-1.84,.04-3.67,.07-5.51,0-.23,.12-.46,.19-.67,1.73-.48,20.21-.59,23.22-.08,0,1.83,.03,3.72,0,5.62-.09,4.91,.38,9.76,2.06,14.38,5.37,14.83,15.31,25.09,30.96,28.51,17.23,3.77,31.49-1.79,42.48-15.55,6.27-7.86,9.04-16.95,9.1-26.92,.01-1.99,0-3.97,0-6.22Z"/>
        <path class="cls-1" d="M916.53,59.02h63.98v19.84h-63.68c-.56,2.13-.63,31.95-.11,34.64h72.89v19.56c-1.79,.52-88.39,.77-95.05,.27-.06-.05-.12-.1-.17-.16-.05-.06-.13-.12-.14-.19-.05-.31-.13-.63-.13-.94,0-41.67,0-83.35,0-125.02,0-.31,.09-.62,.13-.9,1.86-.5,88.98-.72,94.47-.23,.27,6.38,.05,12.8,.14,19.45-1.17,.07-2.18,.18-3.19,.18-21.98,.01-43.97,0-65.95,0h-3.2V59.02Z"/>
        <path class="cls-1" d="M432.08,113.5h72.67c.59,1.85,.73,16.67,.22,19.78h-94.77c-.13-.1-.2-.14-.25-.2-.05-.06-.09-.14-.1-.21-.07-.47-.19-.94-.19-1.41,0-41.36,0-82.73,0-124.09,0-.31,.07-.63,.14-.94,.03-.15,.15-.27,.31-.56h93.82c.5,1.84,.6,16.78,.08,19.58h-72.16c-.09,11.25-.04,22.21-.03,33.41,1.23,.05,2.24,.14,3.25,.14,19.35,0,38.7,0,58.05,.01,.93,0,1.87,.08,2.88,.13v19.67c-3.56,.01-7.04,.03-10.52,.04-3.6,0-7.2,0-10.79,0h-42.35c-.63,1.84-.82,30.8-.25,34.65Z"/>
        <path class="cls-1" d="M678.81,133.42c-.67-2.44-.63-125.47,0-127.57h21.56v127.54c-7.22,.1-14.43,.04-21.57,.04Z"/>
      </g>
      <g>
        <path class="cls-1" d="M323.78,188.62v30.91h-5.82v-3.17c-.85,1.36-1.83,2.34-2.92,2.96s-2.45,.92-4.07,.92c-2.67,0-4.92-1.08-6.75-3.24-1.83-2.16-2.74-4.94-2.74-8.33,0-3.9,.9-6.98,2.7-9.22,1.8-2.24,4.2-3.36,7.21-3.36,1.39,0,2.62,.3,3.7,.91,1.08,.61,1.95,1.45,2.62,2.53v-10.92h6.07Zm-16.12,19.61c0,2.11,.42,3.8,1.26,5.06,.83,1.27,2.09,1.91,3.78,1.91s2.98-.63,3.86-1.89,1.32-2.89,1.32-4.89c0-2.8-.71-4.8-2.12-6-.87-.73-1.88-1.09-3.02-1.09-1.75,0-3.03,.66-3.85,1.98-.82,1.32-1.23,2.96-1.23,4.92Z"/>
        <path class="cls-1" d="M353.38,212.81c-.15,1.36-.86,2.74-2.12,4.14-1.96,2.22-4.7,3.34-8.23,3.34-2.91,0-5.48-.94-7.71-2.81s-3.34-4.93-3.34-9.15c0-3.96,1-7,3.01-9.11,2.01-2.11,4.62-3.17,7.82-3.17,1.9,0,3.62,.36,5.14,1.07,1.53,.71,2.79,1.84,3.78,3.38,.9,1.36,1.48,2.93,1.74,4.72,.15,1.05,.22,2.56,.19,4.54h-15.66c.08,2.3,.8,3.91,2.16,4.83,.83,.57,1.82,.86,2.98,.86,1.23,0,2.23-.35,3-1.05,.42-.38,.79-.9,1.11-1.57h6.11Zm-5.92-7.01c-.1-1.58-.58-2.78-1.44-3.6-.86-.82-1.93-1.23-3.2-1.23-1.39,0-2.46,.43-3.22,1.3-.76,.87-1.24,2.04-1.44,3.53h9.3Z"/>
        <path class="cls-1" d="M377.04,197.69c1.79,1.15,2.82,3.12,3.09,5.92h-5.98c-.08-.77-.3-1.38-.65-1.83-.66-.81-1.78-1.22-3.36-1.22-1.3,0-2.23,.2-2.78,.61-.55,.41-.83,.88-.83,1.43,0,.69,.29,1.18,.88,1.49,.59,.32,2.67,.87,6.24,1.66,2.38,.56,4.16,1.41,5.35,2.54,1.18,1.15,1.76,2.58,1.76,4.3,0,2.27-.84,4.12-2.53,5.55-1.69,1.43-4.29,2.15-7.82,2.15s-6.25-.76-7.97-2.28c-1.71-1.52-2.57-3.45-2.57-5.81h6.07c.13,1.06,.4,1.82,.82,2.27,.74,.8,2.11,1.2,4.12,1.2,1.18,0,2.11-.18,2.8-.53,.69-.35,1.04-.88,1.04-1.57s-.28-1.18-.84-1.53c-.56-.35-2.64-.95-6.24-1.81-2.59-.64-4.42-1.45-5.48-2.42-1.06-.95-1.6-2.32-1.6-4.12,0-2.11,.83-3.93,2.49-5.45,1.66-1.52,3.99-2.28,7-2.28s5.19,.57,6.99,1.7Z"/>
        <path class="cls-1" d="M394.91,188.39v5.52h-6.07v-5.52h6.07Zm0,8.25v22.89h-6.07v-22.89h6.07Z"/>
        <path class="cls-1" d="M410.74,223.53c.64,.55,1.73,.82,3.25,.82,2.16,0,3.6-.72,4.33-2.16,.48-.92,.71-2.48,.71-4.66v-1.47c-.57,.98-1.19,1.71-1.85,2.21-1.19,.91-2.74,1.37-4.64,1.37-2.94,0-5.29-1.03-7.04-3.1-1.76-2.06-2.63-4.86-2.63-8.39s.85-6.26,2.54-8.58c1.69-2.32,4.09-3.47,7.2-3.47,1.15,0,2.15,.17,3,.53,1.46,.6,2.63,1.71,3.53,3.32v-3.3h5.82v21.71c0,2.95-.5,5.18-1.49,6.68-1.71,2.58-4.98,3.86-9.83,3.86-2.93,0-5.31-.57-7.16-1.72s-2.87-2.86-3.07-5.14h6.51c.17,.7,.44,1.2,.82,1.51Zm-1.01-11.82c.81,1.93,2.27,2.9,4.37,2.9,1.4,0,2.58-.53,3.55-1.58s1.45-2.74,1.45-5.05c0-2.17-.46-3.82-1.38-4.96-.92-1.13-2.15-1.7-3.68-1.7-2.1,0-3.55,.99-4.35,2.96-.42,1.05-.63,2.34-.63,3.88,0,1.33,.22,2.51,.67,3.55Z"/>
        <path class="cls-1" d="M444.88,201.07c-2.03,0-3.42,.86-4.18,2.58-.39,.91-.59,2.07-.59,3.49v12.39h-5.96v-22.84h5.77v3.34c.77-1.18,1.5-2.02,2.18-2.54,1.23-.92,2.79-1.39,4.68-1.39,2.37,0,4.3,.62,5.81,1.86,1.5,1.24,2.26,3.29,2.26,6.16v15.41h-6.13v-13.92c0-1.2-.16-2.13-.48-2.77-.59-1.18-1.71-1.76-3.36-1.76Z"/>
        <path class="cls-1" d="M550.16,212.49c-.15,1.36-.86,2.74-2.12,4.14-1.96,2.22-4.7,3.34-8.23,3.34-2.91,0-5.48-.94-7.71-2.81s-3.34-4.93-3.34-9.15c0-3.96,1-7,3.01-9.11,2.01-2.11,4.62-3.17,7.82-3.17,1.9,0,3.62,.36,5.14,1.07,1.53,.71,2.79,1.84,3.78,3.38,.9,1.36,1.48,2.93,1.74,4.72,.15,1.05,.22,2.56,.19,4.54h-15.66c.08,2.3,.8,3.91,2.16,4.83,.83,.57,1.82,.86,2.98,.86,1.23,0,2.23-.35,3-1.05,.42-.38,.79-.9,1.11-1.57h6.11Zm-5.92-7.01c-.1-1.58-.58-2.78-1.44-3.6-.86-.82-1.93-1.23-3.2-1.23-1.39,0-2.46,.43-3.22,1.3-.76,.87-1.24,2.04-1.44,3.53h9.3Z"/>
        <path class="cls-1" d="M568.82,200.75c-2.03,0-3.42,.86-4.18,2.58-.39,.91-.59,2.07-.59,3.49v12.39h-5.96v-22.84h5.77v3.34c.77-1.18,1.5-2.02,2.18-2.54,1.23-.92,2.79-1.39,4.68-1.39,2.37,0,4.3,.62,5.81,1.86,1.5,1.24,2.26,3.29,2.26,6.16v15.41h-6.13v-13.92c0-1.2-.16-2.13-.48-2.77-.59-1.18-1.71-1.76-3.36-1.76Z"/>
        <path class="cls-1" d="M594.36,223.22c.64,.55,1.73,.82,3.25,.82,2.16,0,3.6-.72,4.33-2.16,.48-.92,.71-2.48,.71-4.66v-1.47c-.57,.98-1.19,1.71-1.85,2.21-1.19,.91-2.74,1.37-4.64,1.37-2.94,0-5.29-1.03-7.04-3.1-1.76-2.06-2.63-4.86-2.63-8.39s.85-6.26,2.54-8.58c1.69-2.32,4.09-3.47,7.2-3.47,1.15,0,2.15,.17,3,.53,1.46,.6,2.63,1.71,3.53,3.32v-3.3h5.82v21.71c0,2.95-.5,5.18-1.49,6.68-1.71,2.58-4.98,3.86-9.83,3.86-2.93,0-5.31-.57-7.16-1.72s-2.87-2.86-3.07-5.14h6.51c.17,.7,.44,1.2,.82,1.51Zm-1.01-11.82c.81,1.93,2.27,2.9,4.37,2.9,1.4,0,2.58-.53,3.55-1.58s1.45-2.74,1.45-5.05c0-2.17-.46-3.82-1.38-4.96-.92-1.13-2.15-1.7-3.68-1.7-2.1,0-3.55,.99-4.35,2.96-.42,1.05-.63,2.34-.63,3.88,0,1.33,.22,2.51,.67,3.55Z"/>
        <path class="cls-1" d="M623.88,188.07v5.52h-6.07v-5.52h6.07Zm0,8.25v22.89h-6.07v-22.89h6.07Z"/>
        <path class="cls-1" d="M644.01,200.75c-2.03,0-3.42,.86-4.18,2.58-.39,.91-.59,2.07-.59,3.49v12.39h-5.96v-22.84h5.77v3.34c.77-1.18,1.5-2.02,2.18-2.54,1.23-.92,2.79-1.39,4.68-1.39,2.37,0,4.3,.62,5.81,1.86,1.5,1.24,2.26,3.29,2.26,6.16v15.41h-6.13v-13.92c0-1.2-.16-2.13-.48-2.77-.59-1.18-1.71-1.76-3.36-1.76Z"/>
        <path class="cls-1" d="M683.66,212.49c-.15,1.36-.86,2.74-2.12,4.14-1.96,2.22-4.7,3.34-8.23,3.34-2.91,0-5.48-.94-7.71-2.81s-3.34-4.93-3.34-9.15c0-3.96,1-7,3.01-9.11,2.01-2.11,4.62-3.17,7.82-3.17,1.9,0,3.62,.36,5.14,1.07,1.53,.71,2.79,1.84,3.78,3.38,.9,1.36,1.48,2.93,1.74,4.72,.15,1.05,.22,2.56,.19,4.54h-15.66c.08,2.3,.8,3.91,2.16,4.83,.83,.57,1.82,.86,2.98,.86,1.23,0,2.23-.35,3-1.05,.42-.38,.79-.9,1.11-1.57h6.11Zm-5.92-7.01c-.1-1.58-.58-2.78-1.44-3.6-.86-.82-1.93-1.23-3.2-1.23-1.39,0-2.46,.43-3.22,1.3-.76,.87-1.24,2.04-1.44,3.53h9.3Z"/>
        <path class="cls-1" d="M711.15,212.49c-.15,1.36-.86,2.74-2.12,4.14-1.96,2.22-4.7,3.34-8.23,3.34-2.91,0-5.48-.94-7.71-2.81s-3.34-4.93-3.34-9.15c0-3.96,1-7,3.01-9.11,2.01-2.11,4.62-3.17,7.82-3.17,1.9,0,3.62,.36,5.14,1.07,1.53,.71,2.79,1.84,3.78,3.38,.9,1.36,1.48,2.93,1.74,4.72,.15,1.05,.22,2.56,.19,4.54h-15.66c.08,2.3,.8,3.91,2.16,4.83,.83,.57,1.82,.86,2.98,.86,1.23,0,2.23-.35,3-1.05,.42-.38,.79-.9,1.11-1.57h6.11Zm-5.92-7.01c-.1-1.58-.58-2.78-1.44-3.6-.86-.82-1.93-1.23-3.2-1.23-1.39,0-2.46,.43-3.22,1.3-.76,.87-1.24,2.04-1.44,3.53h9.3Z"/>
        <path class="cls-1" d="M730.55,201.85c-2.41,0-4.02,.78-4.85,2.35-.46,.88-.69,2.24-.69,4.07v10.94h-6.03v-22.89h5.71v3.99c.92-1.53,1.73-2.57,2.41-3.13,1.12-.94,2.58-1.41,4.37-1.41,.11,0,.21,0,.28,.01,.08,0,.25,.02,.51,.03v6.13c-.38-.04-.71-.07-1.01-.08s-.53-.02-.71-.02Z"/>
        <g>
          <path class="cls-1" d="M817.67,202.77c-.5-1.11-1.49-1.66-2.96-1.66-1.71,0-2.86,.55-3.44,1.66-.32,.63-.48,1.57-.48,2.81v13.77h-6.07v-22.84h5.82v3.34c.74-1.19,1.44-2.04,2.1-2.54,1.16-.9,2.67-1.34,4.51-1.34,1.75,0,3.16,.38,4.24,1.16,.87,.71,1.53,1.63,1.97,2.75,.78-1.34,1.76-2.33,2.92-2.96,1.23-.63,2.6-.94,4.12-.94,1.01,0,2,.2,2.98,.59,.98,.39,1.87,1.08,2.67,2.06,.64,.8,1.08,1.78,1.3,2.94,.14,.77,.21,1.9,.21,3.38l-.04,14.42h-6.13v-14.57c0-.87-.14-1.58-.42-2.14-.53-1.06-1.51-1.6-2.94-1.6-1.65,0-2.79,.69-3.42,2.06-.32,.73-.48,1.6-.48,2.62v13.63h-6.03v-13.63c0-1.36-.14-2.34-.42-2.96Z"/>
          <path class="cls-1" d="M847.49,198.95c1.58-2.02,4.3-3.02,8.15-3.02,2.51,0,4.73,.5,6.68,1.49,1.95,.99,2.92,2.87,2.92,5.63v10.5c0,.73,.01,1.61,.04,2.65,.04,.78,.16,1.32,.36,1.6,.2,.28,.49,.51,.88,.69v.88h-6.51c-.18-.46-.31-.9-.38-1.3-.07-.41-.13-.87-.17-1.39-.83,.9-1.78,1.66-2.86,2.29-1.29,.74-2.74,1.11-4.37,1.11-2.07,0-3.78-.59-5.13-1.77-1.35-1.18-2.03-2.86-2.03-5.03,0-2.81,1.08-4.85,3.25-6.11,1.19-.69,2.94-1.18,5.25-1.47l2.04-.25c1.11-.14,1.9-.32,2.37-.53,.85-.36,1.28-.93,1.28-1.7,0-.94-.33-1.58-.98-1.94-.65-.36-1.61-.54-2.87-.54-1.41,0-2.41,.35-3,1.05-.42,.52-.7,1.22-.84,2.1h-5.77c.13-2,.69-3.65,1.68-4.93Zm4.45,16.08c.56,.46,1.25,.69,2.06,.69,1.29,0,2.47-.38,3.56-1.13,1.08-.76,1.65-2.13,1.69-4.14v-2.23c-.38,.24-.76,.43-1.14,.58-.38,.15-.91,.28-1.58,.41l-1.34,.25c-1.26,.22-2.16,.5-2.71,.82-.92,.55-1.39,1.39-1.39,2.54,0,1.02,.29,1.76,.86,2.2Z"/>
          <path class="cls-1" d="M884.88,200.9c-2.03,0-3.42,.86-4.18,2.58-.39,.91-.59,2.07-.59,3.49v12.39h-5.96v-22.84h5.77v3.34c.77-1.18,1.5-2.02,2.18-2.54,1.23-.92,2.79-1.39,4.68-1.39,2.37,0,4.3,.62,5.81,1.86,1.5,1.24,2.26,3.29,2.26,6.16v15.41h-6.13v-13.92c0-1.2-.16-2.13-.48-2.77-.59-1.18-1.71-1.76-3.36-1.76Z"/>
          <path class="cls-1" d="M918.62,216.12c-.06,.07-.2,.28-.42,.63-.22,.35-.49,.66-.8,.92-.94,.84-1.84,1.41-2.72,1.72-.88,.31-1.9,.46-3.08,.46-3.39,0-5.67-1.22-6.84-3.65-.66-1.34-.99-3.32-.99-5.94v-13.79h6.13v13.79c0,1.3,.15,2.28,.46,2.94,.55,1.16,1.62,1.74,3.21,1.74,2.04,0,3.44-.83,4.2-2.48,.39-.9,.59-2.08,.59-3.55v-12.45h6.07v22.89h-5.82v-3.23Z"/>
          <path class="cls-1" d="M945.51,188.22v4.87c-.34-.04-.9-.07-1.69-.09-.79-.02-1.34,.15-1.64,.52-.3,.37-.45,.78-.45,1.23v1.93h3.93v4.22h-3.93v18.46h-5.96v-18.46h-3.34v-4.22h3.28v-1.47c0-2.45,.41-4.14,1.24-5.06,.87-1.37,2.96-2.06,6.28-2.06,.38,0,.72,.01,1.03,.03,.31,.02,.73,.05,1.26,.09Z"/>
          <path class="cls-1" d="M953.53,198.95c1.58-2.02,4.3-3.02,8.15-3.02,2.51,0,4.73,.5,6.68,1.49,1.95,.99,2.92,2.87,2.92,5.63v10.5c0,.73,.01,1.61,.04,2.65,.04,.78,.16,1.32,.36,1.6,.2,.28,.49,.51,.88,.69v.88h-6.51c-.18-.46-.31-.9-.38-1.3-.07-.41-.13-.87-.17-1.39-.83,.9-1.78,1.66-2.86,2.29-1.29,.74-2.74,1.11-4.37,1.11-2.07,0-3.78-.59-5.13-1.77-1.35-1.18-2.03-2.86-2.03-5.03,0-2.81,1.08-4.85,3.25-6.11,1.19-.69,2.94-1.18,5.25-1.47l2.04-.25c1.11-.14,1.9-.32,2.37-.53,.85-.36,1.28-.93,1.28-1.7,0-.94-.33-1.58-.98-1.94-.65-.36-1.61-.54-2.87-.54-1.41,0-2.41,.35-3,1.05-.42,.52-.7,1.22-.84,2.1h-5.77c.13-2,.69-3.65,1.68-4.93Zm4.45,16.08c.56,.46,1.25,.69,2.06,.69,1.29,0,2.47-.38,3.56-1.13,1.08-.76,1.65-2.13,1.69-4.14v-2.23c-.38,.24-.76,.43-1.14,.58-.38,.15-.91,.28-1.58,.41l-1.34,.25c-1.26,.22-2.16,.5-2.71,.82-.92,.55-1.39,1.39-1.39,2.54,0,1.02,.29,1.76,.86,2.2Z"/>
          <path class="cls-1" d="M999.95,204.68h-6.13c-.11-.85-.4-1.62-.86-2.31-.67-.92-1.71-1.38-3.13-1.38-2.02,0-3.39,1-4.14,3-.39,1.06-.59,2.48-.59,4.24s.2,3.03,.59,4.05c.71,1.9,2.06,2.86,4.03,2.86,1.4,0,2.39-.38,2.98-1.13s.94-1.74,1.07-2.94h6.11c-.14,1.82-.8,3.54-1.97,5.16-1.88,2.62-4.65,3.93-8.34,3.93s-6.39-1.09-8.13-3.28c-1.74-2.18-2.6-5.02-2.6-8.5,0-3.93,.96-6.99,2.88-9.18,1.92-2.18,4.56-3.28,7.94-3.28,2.87,0,5.22,.64,7.04,1.93,1.83,1.29,2.91,3.56,3.24,6.82Z"/>
          <path class="cls-1" d="M1019.11,215.09v4.47l-2.83,.1c-2.83,.1-4.76-.39-5.79-1.47-.67-.69-1.01-1.74-1.01-3.17v-14.09h-3.19v-4.26h3.19v-6.38h5.92v6.38h3.72v4.26h-3.72v12.09c0,.94,.12,1.52,.36,1.75,.24,.23,.97,.35,2.18,.35,.18,0,.37,0,.58,0,.2,0,.4-.02,.6-.03Z"/>
          <path class="cls-1" d="M1041.2,216.12c-.06,.07-.2,.28-.42,.63-.22,.35-.49,.66-.8,.92-.94,.84-1.84,1.41-2.72,1.72-.88,.31-1.9,.46-3.08,.46-3.39,0-5.67-1.22-6.84-3.65-.66-1.34-.99-3.32-.99-5.94v-13.79h6.13v13.79c0,1.3,.15,2.28,.46,2.94,.55,1.16,1.62,1.74,3.21,1.74,2.04,0,3.44-.83,4.2-2.48,.39-.9,.59-2.08,.59-3.55v-12.45h6.07v22.89h-5.82v-3.23Z"/>
          <path class="cls-1" d="M1067.86,201.99c-2.41,0-4.02,.78-4.85,2.35-.46,.88-.69,2.24-.69,4.07v10.94h-6.03v-22.89h5.71v3.99c.92-1.53,1.73-2.57,2.41-3.13,1.12-.94,2.58-1.41,4.37-1.41,.11,0,.21,0,.28,.01,.08,0,.25,.02,.51,.03v6.13c-.38-.04-.71-.07-1.01-.08s-.53-.02-.71-.02Z"/>
          <path class="cls-1" d="M1097.25,212.64c-.15,1.36-.86,2.74-2.12,4.14-1.96,2.22-4.7,3.34-8.23,3.34-2.91,0-5.48-.94-7.71-2.81s-3.34-4.93-3.34-9.15c0-3.96,1-7,3.01-9.11,2.01-2.11,4.62-3.17,7.82-3.17,1.9,0,3.62,.36,5.14,1.07,1.53,.71,2.79,1.84,3.78,3.38,.9,1.36,1.48,2.93,1.74,4.72,.15,1.05,.22,2.56,.19,4.54h-15.66c.08,2.3,.8,3.91,2.16,4.83,.83,.57,1.82,.86,2.98,.86,1.23,0,2.23-.35,3-1.05,.42-.38,.79-.9,1.11-1.57h6.11Zm-5.92-7.01c-.1-1.58-.58-2.78-1.44-3.6-.86-.82-1.93-1.23-3.2-1.23-1.39,0-2.46,.43-3.22,1.3-.76,.87-1.24,2.04-1.44,3.53h9.3Z"/>
        </g>
        <circle class="cls-1" cx="492.59" cy="203.85" r="4.71"/>
        <circle class="cls-1" cx="768.49" cy="203.85" r="4.71"/>
      </g>
    </g>
  </g>
</svg>