<?xml version="1.0" encoding="UTF-8"?>
<svg id="Layer_2" data-name="Layer 2" xmlns="http://www.w3.org/2000/svg" viewBox="0 0 1156 234.52">
  <defs>
    <style>
      .cls-1 {
        fill: #4b4c4d;
      }
    </style>
  </defs>
  <g id="Layer_1-2" data-name="Layer 1">
    <g>
      <g>
        <path class="cls-1" d="M0,109.95C-.36,50.39,48.27,.29,109.68,.2c60.02-.08,109.96,48.3,109.94,109.79-.02,60.27-48.53,109.67-109.86,109.62C46.96,219.56-.36,168.4,0,109.95Zm176,2.58h-25.01c-.08,.72-.19,1.26-.19,1.8-.02,4.79,.07,9.58-.06,14.37-.05,1.72-.3,3.54-.94,5.12-5.4,13.26-15.21,21.4-29.16,24.47-4.61,1.01-9.31,1.12-14.06,.69-8.72-.78-16.8-3.4-23.82-8.55-15.99-11.72-22.99-27.65-20.71-47.28,1.55-13.38,7.97-24.29,18.85-32.39,7.12-5.3,15.12-8.6,24-9.41,9.47-.87,18.41,1.21,26.9,5.38,7.79,3.82,14.37,9.2,20.18,15.57,.79,.87,1.62,1.7,2.61,2.73,5.83-5.88,11.47-11.57,17.32-17.46-3.53-3.43-6.75-6.76-10.18-9.85-18.26-16.47-39.54-23.52-64.04-20.07-15.41,2.17-28.6,8.94-39.25,20.26-12.77,13.57-19.33,29.84-20.2,48.41-.62,13.34,1.73,26.09,7.95,37.97,7.97,15.22,19.49,26.81,35.59,33.36,13.1,5.33,26.74,6.51,40.69,4.53,13.32-1.89,24.85-7.39,34.37-16.96,.22-.22,.5-.38,.88-.66,6,5.95,11.72,12.11,17.85,18.1,.66-2.24,1.01-66.98,.43-70.11Z"/>
        <path class="cls-1" d="M745.35,5.82c.94-.04,1.72-.1,2.5-.11,6.24,0,12.47,.06,18.71-.05,1.74-.03,2.71,.52,3.64,1.97,11.93,18.62,23.93,37.2,35.92,55.79,.51,.79,1.05,1.57,1.52,2.27,.27,0,.35,0,.43,0,.08-.01,.15-.04,.22-.08,.07-.04,.13-.09,.18-.14,.1-.12,.2-.25,.3-.38,.09-.13,.18-.26,.26-.4,12.55-19.46,25.09-38.93,37.64-58.39,.09-.13,.21-.24,.33-.35,.05-.05,.12-.1,.2-.16h23.18c.51,1.86,.61,124.72,.11,127.49h-21.72c-.06-1.23-.17-2.39-.17-3.55,0-28.03,0-56.06-.01-84.08,0-1.08-.08-2.15-.13-3.23-.18-.04-.35-.09-.53-.13-13.32,19.86-26.65,39.71-39.98,59.58-1.24-.37-1.55-1.35-2.05-2.1-9.29-13.86-18.56-27.74-27.84-41.61-3.02-4.51-6.03-9.03-9.06-13.53-.43-.63-.91-1.23-1.6-1.79-.49,3.34-.32,6.64-.35,9.93-.03,3.35,0,6.71,0,10.06v70.48h-21.68V5.82Z"/>
        <path class="cls-1" d="M631.95,5.85h21.7v127.42c-.73,.06-1.41,.16-2.1,.16-4.8,.01-9.6-.07-14.39,.05-1.58,.04-2.46-.57-3.36-1.74-12.51-16.18-25.06-32.32-37.6-48.48-9.89-12.75-19.79-25.49-29.68-38.24-.53-.68-1.09-1.33-1.92-2.33-.2,.91-.36,1.39-.4,1.88-.05,.71-.02,1.44-.02,2.15,0,27.79,0,55.58,0,83.36,0,1.02,0,2.04,0,3.2h-21.48c-.48-1.86-.54-125.02-.03-127.47,.74-.03,1.51-.1,2.29-.1,5.2,0,10.4,.07,15.59-.04,1.77-.04,2.89,.47,4,1.91,13.75,17.84,27.58,35.62,41.38,53.42,7.93,10.22,15.86,20.45,23.8,30.67,.51,.66,1.06,1.28,1.85,1.82,.46-7.32,.33-14.54,.35-21.75,.02-7.35,0-14.69,0-22.04s0-14.53,0-21.8c0-7.26,0-14.52,0-22.05Z"/>
        <path class="cls-1" d="M390.79,29.26c-5.45,5.32-10.75,10.5-15.99,15.62-1.26-1.19-2.76-2.49-4.14-3.91-6.55-6.74-14.1-11.93-22.93-15.29-25.93-9.87-54.24,5.76-60.76,32.41-5.92,24.17,8.09,50.2,33.27,57.05,10.31,2.81,20.61,2.74,30.47-1.72,9.33-4.22,16.04-11.16,19.85-20.77,.69-1.73,1.03-3.49,1-5.36-.05-4.07,0-8.14,.02-12.22,0-.86,.07-1.72,.12-2.73h23.25c.62,3.01,.29,63.66-.43,65.96-5.57-5.68-11.02-11.23-16.55-16.87-.48,.33-.9,.54-1.21,.85-9.28,9.25-20.51,14.45-33.46,16.11-13.25,1.69-26.18,.52-38.54-4.68-15.66-6.6-26.68-18.13-34.04-33.22-6.08-12.46-7.81-25.71-6.29-39.41,1.75-15.82,7.95-29.69,18.96-41.22,10.03-10.51,22.34-16.88,36.77-18.98,22.05-3.2,41.65,2.38,58.67,16.73,3.96,3.34,7.54,7.13,11.29,10.71,.22,.21,.37,.5,.7,.94Z"/>
        <path class="cls-1" d="M1129.87,5.84h23.29c1.48,25.52-8.22,45.57-29.05,60.69,1.06,.81,1.91,1.47,2.77,2.12,12.77,9.69,21.16,22.28,24.73,37.9,.97,4.25,1.32,8.67,1.62,13.03,.26,3.89,.07,7.82,.05,11.73,0,.62-.1,1.24-.16,1.98h-23.06c-.06-.87-.16-1.71-.18-2.56-.09-4.55,0-9.11-.26-13.64-1.11-19.17-16.63-36.3-35.6-39.1-27.48-4.06-45.9,17.2-48.14,35.67-.67,5.52-.43,11.15-.59,16.73-.03,.93,0,1.87,0,2.92h-23.17c-.11-.66-.3-1.27-.3-1.87,.03-4.87-.06-9.75,.19-14.61,.83-15.89,7.05-29.5,18.06-40.91,2.65-2.74,5.75-5.05,8.66-7.55,.66-.57,1.38-1.06,2.38-1.82-.86-.68-1.56-1.28-2.29-1.81-9.21-6.74-16.35-15.18-21.18-25.55-3.98-8.54-5.8-17.53-5.84-26.92,0-1.84,.04-3.67,.07-5.51,0-.23,.12-.46,.19-.67,1.73-.48,20.21-.59,23.22-.08,0,1.83,.03,3.72,0,5.62-.09,4.91,.38,9.76,2.06,14.38,5.37,14.83,15.31,25.09,30.96,28.51,17.23,3.77,31.49-1.79,42.48-15.55,6.27-7.86,9.04-16.95,9.1-26.92,.01-1.99,0-3.97,0-6.22Z"/>
        <path class="cls-1" d="M926.53,59.02h63.98v19.84h-63.68c-.56,2.13-.63,31.95-.11,34.64h72.89v19.56c-1.79,.52-88.39,.77-95.05,.27-.06-.05-.12-.1-.17-.16-.05-.06-.13-.12-.14-.19-.05-.31-.13-.63-.13-.94,0-41.67,0-83.35,0-125.02,0-.31,.09-.62,.13-.9,1.86-.5,88.98-.72,94.47-.23,.27,6.38,.05,12.8,.14,19.45-1.17,.07-2.18,.18-3.19,.18-21.98,.01-43.97,0-65.95,0h-3.2V59.02Z"/>
        <path class="cls-1" d="M442.08,113.5h72.67c.59,1.85,.73,16.67,.22,19.78h-94.77c-.13-.1-.2-.14-.25-.2-.05-.06-.09-.14-.1-.21-.07-.47-.19-.94-.19-1.41,0-41.36,0-82.73,0-124.09,0-.31,.07-.63,.14-.94,.03-.15,.15-.27,.31-.56h93.82c.5,1.84,.6,16.78,.08,19.58h-72.16c-.09,11.25-.04,22.21-.03,33.41,1.23,.05,2.24,.14,3.25,.14,19.35,0,38.7,0,58.05,.01,.93,0,1.87,.08,2.88,.13v19.67c-3.56,.01-7.04,.03-10.52,.04-3.6,0-7.2,0-10.79,0h-42.35c-.63,1.84-.82,30.8-.25,34.65Z"/>
        <path class="cls-1" d="M688.81,133.42c-.67-2.44-.63-125.47,0-127.57h21.56v127.54c-7.22,.1-14.43,.04-21.57,.04Z"/>
      </g>
      <g>
        <path class="cls-1" d="M289.26,188.69v35.17h-6.62v-3.61c-.97,1.54-2.08,2.67-3.32,3.37s-2.79,1.05-4.64,1.05c-3.04,0-5.6-1.23-7.68-3.69-2.08-2.46-3.12-5.62-3.12-9.47,0-4.44,1.02-7.94,3.07-10.49,2.05-2.55,4.78-3.82,8.21-3.82,1.58,0,2.98,.35,4.21,1.04,1.23,.69,2.22,1.65,2.99,2.88v-12.42h6.9Zm-18.35,22.32c0,2.4,.48,4.32,1.43,5.76,.94,1.45,2.37,2.17,4.3,2.17s3.39-.72,4.4-2.15,1.51-3.29,1.51-5.57c0-3.18-.8-5.46-2.41-6.83-.99-.83-2.13-1.24-3.44-1.24-1.99,0-3.45,.75-4.38,2.26-.93,1.51-1.4,3.37-1.4,5.6Z"/>
        <path class="cls-1" d="M322.94,216.22c-.18,1.54-.98,3.11-2.41,4.71-2.23,2.53-5.35,3.8-9.37,3.8-3.31,0-6.24-1.07-8.77-3.2s-3.8-5.61-3.8-10.42c0-4.51,1.14-7.96,3.43-10.37,2.29-2.4,5.25-3.61,8.9-3.61,2.17,0,4.12,.41,5.85,1.22,1.74,.81,3.17,2.09,4.3,3.85,1.02,1.54,1.68,3.34,1.98,5.38,.18,1.19,.25,2.91,.22,5.16h-17.82c.1,2.61,.92,4.44,2.46,5.5,.94,.65,2.07,.98,3.39,.98,1.4,0,2.54-.4,3.42-1.2,.48-.43,.9-1.03,1.27-1.79h6.95Zm-6.74-7.98c-.11-1.8-.66-3.17-1.64-4.1-.98-.93-2.19-1.4-3.64-1.4-1.58,0-2.8,.49-3.67,1.48-.87,.99-1.41,2.33-1.64,4.01h10.58Z"/>
        <path class="cls-1" d="M349.87,199.02c2.04,1.31,3.21,3.55,3.51,6.74h-6.81c-.1-.88-.34-1.57-.74-2.08-.75-.92-2.02-1.38-3.82-1.38-1.48,0-2.54,.23-3.17,.69-.63,.46-.94,1-.94,1.62,0,.78,.33,1.35,1,1.7,.67,.37,3.03,.99,7.1,1.89,2.71,.64,4.74,1.6,6.09,2.89,1.34,1.31,2.01,2.94,2.01,4.9,0,2.58-.96,4.69-2.88,6.32-1.92,1.63-4.89,2.45-8.9,2.45s-7.12-.86-9.07-2.59c-1.95-1.73-2.93-3.93-2.93-6.61h6.9c.14,1.21,.45,2.07,.93,2.58,.84,.91,2.4,1.36,4.68,1.36,1.34,0,2.4-.2,3.19-.6,.79-.4,1.18-1,1.18-1.79s-.32-1.35-.96-1.74c-.64-.4-3-1.08-7.1-2.05-2.95-.73-5.03-1.65-6.24-2.75-1.21-1.08-1.82-2.64-1.82-4.68,0-2.4,.94-4.47,2.83-6.2,1.89-1.73,4.54-2.59,7.97-2.59s5.9,.65,7.96,1.94Z"/>
        <path class="cls-1" d="M370.2,188.43v6.28h-6.9v-6.28h6.9Zm0,9.39v26.04h-6.9v-26.04h6.9Z"/>
        <path class="cls-1" d="M388.21,228.43c.73,.62,1.97,.93,3.7,.93,2.45,0,4.09-.82,4.92-2.46,.54-1.05,.81-2.82,.81-5.3v-1.67c-.65,1.12-1.35,1.95-2.1,2.51-1.35,1.04-3.11,1.55-5.28,1.55-3.34,0-6.02-1.17-8.02-3.52-2-2.35-3-5.53-3-9.54s.96-7.12,2.89-9.76c1.93-2.64,4.66-3.95,8.19-3.95,1.31,0,2.44,.2,3.42,.6,1.66,.68,2.99,1.94,4.01,3.77v-3.75h6.62v24.7c0,3.36-.57,5.89-1.7,7.6-1.94,2.93-5.67,4.4-11.18,4.4-3.33,0-6.04-.65-8.15-1.96s-3.27-3.26-3.49-5.85h7.41c.19,.8,.5,1.37,.93,1.72Zm-1.15-13.45c.92,2.2,2.58,3.3,4.97,3.3,1.59,0,2.94-.6,4.04-1.8s1.65-3.12,1.65-5.75c0-2.47-.52-4.35-1.57-5.64-1.04-1.29-2.44-1.93-4.19-1.93-2.39,0-4.04,1.12-4.95,3.37-.48,1.19-.72,2.67-.72,4.42,0,1.51,.25,2.86,.76,4.04Z"/>
        <path class="cls-1" d="M427.06,202.86c-2.31,0-3.89,.98-4.75,2.94-.45,1.04-.67,2.36-.67,3.97v14.1h-6.79v-25.99h6.57v3.8c.88-1.34,1.7-2.3,2.48-2.89,1.4-1.05,3.18-1.58,5.33-1.58,2.69,0,4.89,.7,6.61,2.11,1.71,1.41,2.57,3.75,2.57,7.01v17.54h-6.98v-15.84c0-1.37-.18-2.42-.55-3.15-.67-1.34-1.94-2.01-3.82-2.01Z"/>
        <path class="cls-1" d="M539.74,215.86c-.18,1.54-.98,3.11-2.41,4.71-2.23,2.53-5.35,3.8-9.37,3.8-3.31,0-6.24-1.07-8.77-3.2s-3.8-5.61-3.8-10.42c0-4.51,1.14-7.96,3.43-10.37,2.29-2.4,5.25-3.61,8.9-3.61,2.17,0,4.12,.41,5.85,1.22,1.74,.81,3.17,2.09,4.3,3.85,1.02,1.54,1.68,3.34,1.98,5.38,.18,1.19,.25,2.91,.22,5.16h-17.82c.1,2.61,.92,4.44,2.46,5.5,.94,.65,2.07,.98,3.39,.98,1.4,0,2.54-.4,3.42-1.2,.48-.43,.9-1.03,1.27-1.79h6.95Zm-6.74-7.98c-.11-1.8-.66-3.17-1.64-4.1-.98-.93-2.19-1.4-3.64-1.4-1.58,0-2.8,.49-3.67,1.48-.87,.99-1.41,2.33-1.64,4.01h10.58Z"/>
        <path class="cls-1" d="M560.98,202.5c-2.31,0-3.89,.98-4.75,2.94-.45,1.04-.67,2.36-.67,3.97v14.1h-6.79v-25.99h6.57v3.8c.88-1.34,1.7-2.3,2.48-2.89,1.4-1.05,3.18-1.58,5.33-1.58,2.69,0,4.89,.7,6.61,2.11,1.71,1.41,2.57,3.75,2.57,7.01v17.54h-6.98v-15.84c0-1.37-.18-2.42-.55-3.15-.67-1.34-1.94-2.01-3.82-2.01Z"/>
        <path class="cls-1" d="M590.03,228.07c.73,.62,1.97,.93,3.7,.93,2.45,0,4.09-.82,4.92-2.46,.54-1.05,.81-2.82,.81-5.3v-1.67c-.65,1.12-1.35,1.95-2.1,2.51-1.35,1.04-3.11,1.55-5.28,1.55-3.34,0-6.02-1.17-8.02-3.52-2-2.35-3-5.53-3-9.54s.96-7.12,2.89-9.76c1.93-2.64,4.66-3.95,8.19-3.95,1.31,0,2.44,.2,3.42,.6,1.66,.68,2.99,1.94,4.01,3.77v-3.75h6.62v24.7c0,3.36-.57,5.89-1.7,7.6-1.94,2.93-5.67,4.4-11.18,4.4-3.33,0-6.04-.65-8.15-1.96s-3.27-3.26-3.49-5.85h7.41c.19,.8,.5,1.37,.93,1.72Zm-1.15-13.45c.92,2.2,2.58,3.3,4.97,3.3,1.59,0,2.94-.6,4.04-1.8s1.65-3.12,1.65-5.75c0-2.47-.52-4.35-1.57-5.64-1.04-1.29-2.44-1.93-4.19-1.93-2.39,0-4.04,1.12-4.95,3.37-.48,1.19-.72,2.67-.72,4.42,0,1.51,.25,2.86,.76,4.04Z"/>
        <path class="cls-1" d="M623.62,188.07v6.28h-6.9v-6.28h6.9Zm0,9.39v26.04h-6.9v-26.04h6.9Z"/>
        <path class="cls-1" d="M646.53,202.5c-2.31,0-3.89,.98-4.75,2.94-.45,1.04-.67,2.36-.67,3.97v14.1h-6.79v-25.99h6.57v3.8c.88-1.34,1.7-2.3,2.48-2.89,1.4-1.05,3.18-1.58,5.33-1.58,2.69,0,4.89,.7,6.61,2.11,1.71,1.41,2.57,3.75,2.57,7.01v17.54h-6.98v-15.84c0-1.37-.18-2.42-.55-3.15-.67-1.34-1.94-2.01-3.82-2.01Z"/>
        <path class="cls-1" d="M691.66,215.86c-.18,1.54-.98,3.11-2.41,4.71-2.23,2.53-5.35,3.8-9.37,3.8-3.31,0-6.24-1.07-8.77-3.2s-3.8-5.61-3.8-10.42c0-4.51,1.14-7.96,3.43-10.37,2.29-2.4,5.25-3.61,8.9-3.61,2.17,0,4.12,.41,5.85,1.22,1.74,.81,3.17,2.09,4.3,3.85,1.02,1.54,1.68,3.34,1.98,5.38,.18,1.19,.25,2.91,.22,5.16h-17.82c.1,2.61,.92,4.44,2.46,5.5,.94,.65,2.07,.98,3.39,.98,1.4,0,2.54-.4,3.42-1.2,.48-.43,.9-1.03,1.27-1.79h6.95Zm-6.74-7.98c-.11-1.8-.66-3.17-1.64-4.1-.98-.93-2.19-1.4-3.64-1.4-1.58,0-2.8,.49-3.67,1.48-.87,.99-1.41,2.33-1.64,4.01h10.58Z"/>
        <path class="cls-1" d="M722.93,215.86c-.18,1.54-.98,3.11-2.41,4.71-2.23,2.53-5.35,3.8-9.37,3.8-3.31,0-6.24-1.07-8.77-3.2s-3.8-5.61-3.8-10.42c0-4.51,1.14-7.96,3.43-10.37,2.29-2.4,5.25-3.61,8.9-3.61,2.17,0,4.12,.41,5.85,1.22,1.74,.81,3.17,2.09,4.3,3.85,1.02,1.54,1.68,3.34,1.98,5.38,.18,1.19,.25,2.91,.22,5.16h-17.82c.1,2.61,.92,4.44,2.46,5.5,.94,.65,2.07,.98,3.39,.98,1.4,0,2.54-.4,3.42-1.2,.48-.43,.9-1.03,1.27-1.79h6.95Zm-6.74-7.98c-.11-1.8-.66-3.17-1.64-4.1-.98-.93-2.19-1.4-3.64-1.4-1.58,0-2.8,.49-3.67,1.48-.87,.99-1.41,2.33-1.64,4.01h10.58Z"/>
        <path class="cls-1" d="M745.01,203.75c-2.74,0-4.58,.89-5.52,2.68-.53,1-.79,2.55-.79,4.63v12.45h-6.86v-26.04h6.5v4.54c1.05-1.74,1.97-2.92,2.75-3.56,1.27-1.07,2.93-1.6,4.97-1.6,.13,0,.24,0,.32,.01,.09,0,.28,.02,.59,.04v6.98c-.43-.05-.81-.08-1.15-.1s-.61-.02-.81-.02Z"/>
        <g>
          <path class="cls-1" d="M837.52,204.79c-.57-1.26-1.7-1.89-3.37-1.89-1.94,0-3.25,.63-3.92,1.89-.37,.72-.55,1.78-.55,3.2v15.67h-6.9v-25.99h6.62v3.8c.84-1.35,1.64-2.32,2.39-2.89,1.32-1.02,3.03-1.53,5.14-1.53,1.99,0,3.6,.44,4.83,1.31,.99,.81,1.74,1.85,2.25,3.13,.89-1.53,2-2.65,3.32-3.37,1.4-.72,2.96-1.07,4.68-1.07,1.15,0,2.28,.22,3.39,.67,1.11,.45,2.13,1.23,3.03,2.34,.73,.91,1.23,2.02,1.48,3.34,.16,.88,.24,2.16,.24,3.85l-.05,16.41h-6.98v-16.58c0-.99-.16-1.8-.48-2.44-.61-1.21-1.72-1.82-3.34-1.82-1.88,0-3.18,.78-3.89,2.34-.37,.83-.55,1.82-.55,2.99v15.51h-6.86v-15.51c0-1.54-.16-2.67-.48-3.37Z"/>
          <path class="cls-1" d="M871.44,200.45c1.8-2.29,4.89-3.44,9.27-3.44,2.85,0,5.38,.57,7.6,1.7,2.21,1.13,3.32,3.27,3.32,6.4v11.95c0,.83,.02,1.83,.05,3.01,.05,.89,.18,1.5,.41,1.82,.22,.32,.56,.58,1,.79v1h-7.41c-.21-.53-.35-1.02-.43-1.48-.08-.46-.14-.99-.19-1.58-.94,1.02-2.02,1.89-3.25,2.6-1.47,.84-3.12,1.27-4.97,1.27-2.36,0-4.3-.67-5.84-2.02-1.54-1.35-2.31-3.25-2.31-5.72,0-3.2,1.23-5.52,3.7-6.95,1.35-.78,3.34-1.34,5.97-1.67l2.32-.29c1.26-.16,2.16-.36,2.7-.6,.97-.41,1.46-1.06,1.46-1.94,0-1.07-.37-1.8-1.11-2.21-.74-.41-1.83-.61-3.26-.61-1.61,0-2.75,.4-3.42,1.19-.48,.59-.8,1.39-.96,2.39h-6.57c.14-2.28,.78-4.15,1.91-5.61Zm5.07,18.3c.64,.53,1.42,.79,2.34,.79,1.47,0,2.82-.43,4.05-1.29,1.23-.86,1.88-2.43,1.92-4.71v-2.53c-.43,.27-.86,.49-1.3,.66-.44,.17-1.04,.32-1.8,.47l-1.53,.29c-1.43,.25-2.46,.56-3.08,.93-1.05,.62-1.58,1.58-1.58,2.89,0,1.16,.33,2,.98,2.51Z"/>
          <path class="cls-1" d="M913.99,202.67c-2.31,0-3.89,.98-4.75,2.94-.45,1.04-.67,2.36-.67,3.97v14.1h-6.79v-25.99h6.57v3.8c.88-1.34,1.7-2.3,2.48-2.89,1.4-1.05,3.18-1.58,5.33-1.58,2.69,0,4.89,.7,6.61,2.11,1.71,1.41,2.57,3.75,2.57,7.01v17.54h-6.98v-15.84c0-1.37-.18-2.42-.55-3.15-.67-1.34-1.94-2.01-3.82-2.01Z"/>
          <path class="cls-1" d="M952.39,219.99c-.06,.08-.22,.32-.48,.72-.26,.4-.56,.75-.91,1.05-1.07,.96-2.1,1.61-3.09,1.96-1,.35-2.16,.53-3.5,.53-3.85,0-6.45-1.39-7.79-4.16-.75-1.53-1.12-3.78-1.12-6.76v-15.7h6.98v15.7c0,1.48,.18,2.6,.53,3.34,.62,1.32,1.84,1.98,3.66,1.98,2.33,0,3.92-.94,4.78-2.82,.45-1.02,.67-2.36,.67-4.04v-14.17h6.9v26.04h-6.62v-3.68Z"/>
          <path class="cls-1" d="M982.99,188.24v5.54c-.38-.05-1.02-.08-1.92-.11-.9-.02-1.52,.18-1.86,.6-.34,.42-.51,.89-.51,1.4v2.2h4.47v4.8h-4.47v21h-6.79v-21h-3.8v-4.8h3.73v-1.67c0-2.79,.47-4.71,1.41-5.76,.99-1.56,3.37-2.34,7.14-2.34,.43,0,.82,.01,1.17,.04,.35,.02,.83,.06,1.43,.11Z"/>
          <path class="cls-1" d="M992.11,200.45c1.8-2.29,4.89-3.44,9.27-3.44,2.85,0,5.38,.57,7.6,1.7,2.21,1.13,3.32,3.27,3.32,6.4v11.95c0,.83,.02,1.83,.05,3.01,.05,.89,.18,1.5,.41,1.82,.22,.32,.56,.58,1,.79v1h-7.41c-.21-.53-.35-1.02-.43-1.48-.08-.46-.14-.99-.19-1.58-.94,1.02-2.02,1.89-3.25,2.6-1.47,.84-3.12,1.27-4.97,1.27-2.36,0-4.3-.67-5.84-2.02-1.54-1.35-2.31-3.25-2.31-5.72,0-3.2,1.23-5.52,3.7-6.95,1.35-.78,3.34-1.34,5.97-1.67l2.32-.29c1.26-.16,2.16-.36,2.7-.6,.97-.41,1.46-1.06,1.46-1.94,0-1.07-.37-1.8-1.11-2.21-.74-.41-1.83-.61-3.26-.61-1.61,0-2.75,.4-3.42,1.19-.48,.59-.8,1.39-.96,2.39h-6.57c.14-2.28,.78-4.15,1.91-5.61Zm5.07,18.3c.64,.53,1.42,.79,2.34,.79,1.47,0,2.82-.43,4.05-1.29,1.23-.86,1.88-2.43,1.92-4.71v-2.53c-.43,.27-.86,.49-1.3,.66-.44,.17-1.04,.32-1.8,.47l-1.53,.29c-1.43,.25-2.46,.56-3.08,.93-1.05,.62-1.58,1.58-1.58,2.89,0,1.16,.33,2,.98,2.51Z"/>
          <path class="cls-1" d="M1044.94,206.97h-6.98c-.13-.97-.45-1.85-.98-2.63-.76-1.05-1.95-1.58-3.56-1.58-2.29,0-3.86,1.14-4.71,3.42-.45,1.21-.67,2.82-.67,4.83s.22,3.45,.67,4.61c.81,2.17,2.34,3.25,4.59,3.25,1.59,0,2.72-.43,3.39-1.29s1.08-1.98,1.22-3.34h6.95c-.16,2.07-.91,4.03-2.25,5.88-2.13,2.98-5.3,4.47-9.49,4.47s-7.27-1.24-9.25-3.73c-1.98-2.48-2.96-5.71-2.96-9.68,0-4.48,1.09-7.96,3.27-10.44,2.18-2.48,5.19-3.73,9.03-3.73,3.26,0,5.94,.73,8.02,2.2,2.08,1.47,3.31,4.05,3.69,7.77Z"/>
          <path class="cls-1" d="M1066.74,218.82v5.09l-3.23,.12c-3.22,.11-5.42-.45-6.59-1.67-.76-.78-1.15-1.98-1.15-3.61v-16.03h-3.63v-4.85h3.63v-7.26h6.74v7.26h4.23v4.85h-4.23v13.76c0,1.07,.14,1.73,.41,2,.27,.26,1.1,.39,2.48,.39,.21,0,.43,0,.66-.01,.23,0,.46-.02,.68-.04Z"/>
          <path class="cls-1" d="M1091.88,219.99c-.06,.08-.22,.32-.48,.72-.26,.4-.56,.75-.91,1.05-1.07,.96-2.1,1.61-3.09,1.96-1,.35-2.16,.53-3.5,.53-3.85,0-6.45-1.39-7.79-4.16-.75-1.53-1.12-3.78-1.12-6.76v-15.7h6.98v15.7c0,1.48,.18,2.6,.53,3.34,.62,1.32,1.84,1.98,3.66,1.98,2.33,0,3.92-.94,4.78-2.82,.45-1.02,.67-2.36,.67-4.04v-14.17h6.9v26.04h-6.62v-3.68Z"/>
          <path class="cls-1" d="M1122.22,203.91c-2.74,0-4.58,.89-5.52,2.68-.53,1-.79,2.55-.79,4.63v12.45h-6.86v-26.04h6.5v4.54c1.05-1.74,1.97-2.92,2.75-3.56,1.27-1.07,2.93-1.6,4.97-1.6,.13,0,.24,0,.32,.01,.09,0,.28,.02,.59,.04v6.98c-.43-.05-.81-.08-1.15-.1s-.61-.02-.81-.02Z"/>
          <path class="cls-1" d="M1155.66,216.02c-.18,1.54-.98,3.11-2.41,4.71-2.23,2.53-5.35,3.8-9.37,3.8-3.31,0-6.24-1.07-8.77-3.2s-3.8-5.61-3.8-10.42c0-4.51,1.14-7.96,3.43-10.37,2.29-2.4,5.25-3.61,8.9-3.61,2.17,0,4.12,.41,5.85,1.22,1.74,.81,3.17,2.09,4.3,3.85,1.02,1.54,1.68,3.34,1.98,5.38,.18,1.19,.25,2.91,.22,5.16h-17.82c.1,2.61,.92,4.44,2.46,5.5,.94,.65,2.07,.98,3.39,.98,1.4,0,2.54-.4,3.42-1.2,.48-.43,.9-1.03,1.27-1.79h6.95Zm-6.74-7.98c-.11-1.8-.66-3.17-1.64-4.1-.98-.93-2.19-1.4-3.64-1.4-1.58,0-2.8,.49-3.67,1.48-.87,.99-1.41,2.33-1.64,4.01h10.58Z"/>
        </g>
        <circle class="cls-1" cx="476.98" cy="206.74" r="5.35"/>
        <circle class="cls-1" cx="785.13" cy="206.03" r="5.35"/>
      </g>
    </g>
  </g>
</svg>