<svg xmlns="http://www.w3.org/2000/svg" width="18.854" height="18.033" viewBox="0 0 18.854 18.033">
  <g id="Group_424" data-name="Group 424" transform="translate(-7.391 -5.74)">
    <path id="linkedin" d="M18.862,11.079v6.974H14.818V11.54c0-1.635-.585-2.75-2.05-2.75a2.212,2.212,0,0,0-2.075,1.479,2.763,2.763,0,0,0-.134.985v6.793H6.511s.054-11.02,0-12.162h4.05v1.73l-.027.04h.027v-.04A4.015,4.015,0,0,1,14.206,5.6C16.867,5.6,18.862,7.343,18.862,11.079ZM2.29.027a2.107,2.107,0,1,0-.053,4.2h.027A2.108,2.108,0,1,0,2.29.027ZM.24,18.053H4.281V5.89H.24Z" transform="translate(7.383 5.72)" fill="#43bfad"/>
  </g>
</svg>
