<svg xmlns="http://www.w3.org/2000/svg" width="15.632" height="14.951" viewBox="0 0 15.632 14.951">
  <g id="Group_424" data-name="Group 424" transform="translate(-7.391 -5.739)">
    <path id="linkedin" d="M15.64,9.189v5.782H12.287v-5.4c0-1.356-.485-2.28-1.7-2.28a1.834,1.834,0,0,0-1.72,1.226,2.291,2.291,0,0,0-.111.817v5.632H5.4s.045-9.137,0-10.084H8.758V6.316l-.022.033h.022V6.316A3.329,3.329,0,0,1,11.78,4.65C13.986,4.65,15.64,6.092,15.64,9.189ZM1.9.026a1.747,1.747,0,1,0-.044,3.485h.022A1.748,1.748,0,1,0,1.9.026ZM.2,14.971H3.551V4.887H.2Z" transform="translate(7.383 5.72)" fill="#fff"/>
  </g>
</svg>
