<svg xmlns="http://www.w3.org/2000/svg" width="40" height="40" viewBox="0 0 40 40">
  <g id="Group_1772" data-name="Group 1772" transform="translate(-1187 -656.208)">
    <ellipse id="Ellipse_219" data-name="Ellipse 219" cx="20" cy="20" rx="20" ry="20" transform="translate(1187 656.208)" fill="#43bfad"/>
    <g id="Group_424" data-name="Group 424" transform="translate(1198.792 665.97)">
      <path id="linkedin" d="M18.424,10.822v6.812h-3.95V11.272c0-1.6-.571-2.686-2-2.686a2.161,2.161,0,0,0-2.026,1.444,2.7,2.7,0,0,0-.131.963v6.635H6.36s.053-10.764,0-11.88h3.956V7.437l-.026.039h.026V7.437a3.922,3.922,0,0,1,3.56-1.963C16.475,5.475,18.424,7.173,18.424,10.822ZM2.237.027a2.058,2.058,0,1,0-.052,4.106h.026A2.059,2.059,0,1,0,2.237.027Zm-2,17.607H4.182V5.754H.234Z" transform="translate(-0.008 -0.02)" fill="#fff"/>
    </g>
  </g>
</svg>
