<svg xmlns="http://www.w3.org/2000/svg" width="21.549" height="17.238" viewBox="0 0 21.549 17.238">
  <path id="twitter" d="M21.549,2.053a8.934,8.934,0,0,1-2.538.686A4.385,4.385,0,0,0,20.954.333a9,9,0,0,1-2.809,1.056A4.439,4.439,0,0,0,14.919.017,4.388,4.388,0,0,0,10.5,4.361a4.3,4.3,0,0,0,.115.992A12.615,12.615,0,0,1,1.5.81,4.271,4.271,0,0,0,.9,3,4.332,4.332,0,0,0,2.869,6.621a4.473,4.473,0,0,1-2-.546v.054A4.375,4.375,0,0,0,4.412,10.4a4.543,4.543,0,0,1-1.164.152,4.248,4.248,0,0,1-.832-.079A4.415,4.415,0,0,0,6.544,13.5a8.955,8.955,0,0,1-5.488,1.861A9.451,9.451,0,0,1,0,15.295a12.635,12.635,0,0,0,6.776,1.958A12.39,12.39,0,0,0,19.353,4.868l-.02-.564a8.756,8.756,0,0,0,2.211-2.245Z" transform="translate(0 -0.017)" fill="#43bfad"/>
</svg>
