<svg xmlns="http://www.w3.org/2000/svg" width="20" height="13.904" viewBox="0 0 20 13.904">
  <g id="_3721679-youtube_108064" data-name="3721679-youtube_108064" transform="translate(-2 -5.048)">
    <g id="Group_1348" data-name="Group 1348">
      <path id="Path_2711" data-name="Path 2711" d="M2.093,9.075A4,4,0,0,1,5.655,5.359c2.005-.2,4.136-.311,6.345-.311a63.229,63.229,0,0,1,6.345.312,3.994,3.994,0,0,1,3.562,3.715c.061.956.093,1.933.093,2.925s-.032,1.969-.093,2.925a4,4,0,0,1-3.562,3.716c-2,.2-4.136.311-6.345.311a63.229,63.229,0,0,1-6.345-.312,3.994,3.994,0,0,1-3.562-3.715C2.032,13.969,2,12.992,2,12s.032-1.969.093-2.925Z" fill="#fff" fill-rule="evenodd"/>
      <path id="Path_2712" data-name="Path 2712" d="M15.055,12l-4.909,2.995V9.005Z" fill="#43bfad" fill-rule="evenodd"/>
    </g>
  </g>
</svg>
